<svg id="Layer_2" data-name="Layer 2" xmlns="http://www.w3.org/2000/svg" viewBox="0 0 104.87 16">
  <g id="Layer_1-2" data-name="Layer 1">
    <g>
      <path
        d="M9.15,.56c-.17-.34-.52-.56-.9-.56s-.73,.22-.9,.56l-2.01,4.13L.85,5.36c-.38,.06-.69,.32-.8,.68s-.02,.76,.25,1.02l3.26,3.22-.77,4.55c-.06,.38,.09,.76,.4,.98s.72,.25,1.06,.07l4.01-2.14,4.01,2.14c.34,.18,.75,.15,1.06-.07s.47-.6,.4-.98l-.77-4.55,3.26-3.22c.27-.27,.37-.66,.25-1.02s-.43-.62-.8-.68l-4.49-.66L9.15,.56Z" />
      <path
        d="M31.24,.56c-.17-.34-.52-.56-.9-.56s-.73,.22-.9,.56l-2.01,4.13-4.49,.66c-.38,.06-.69,.32-.8,.68s-.02,.76,.25,1.02l3.26,3.22-.77,4.55c-.06,.38,.09,.76,.4,.98s.72,.25,1.06,.07l4.01-2.14,4.01,2.14c.34,.18,.75,.15,1.06-.07s.47-.6,.4-.98l-.77-4.55,3.26-3.22c.27-.27,.37-.66,.25-1.02s-.43-.62-.8-.68l-4.49-.66L31.24,.56Z" />
      <path
        d="M53.33,.56c-.17-.34-.52-.56-.9-.56s-.73,.22-.9,.56l-2.01,4.13-4.49,.66c-.38,.06-.69,.32-.8,.68s-.02,.76,.25,1.02l3.26,3.22-.77,4.55c-.06,.38,.09,.76,.4,.98s.72,.25,1.06,.07l4.01-2.14,4.01,2.14c.34,.18,.75,.15,1.06-.07s.47-.6,.4-.98l-.77-4.55,3.26-3.22c.27-.27,.37-.66,.25-1.02s-.43-.62-.8-.68l-4.49-.66-2.01-4.13Z" />
      <path
        d="M75.43,.56c-.17-.34-.52-.56-.9-.56s-.73,.22-.9,.56l-2.01,4.13-4.49,.66c-.38,.06-.69,.32-.8,.68s-.02,.76,.25,1.02l3.26,3.22-.77,4.55c-.06,.38,.09,.76,.4,.98s.72,.25,1.06,.07l4.01-2.14,4.01,2.14c.34,.18,.75,.15,1.06-.07s.47-.6,.4-.98l-.77-4.55,3.26-3.22c.27-.27,.37-.66,.25-1.02s-.43-.62-.8-.68l-4.49-.66-2.01-4.13Z" />
      <path
        d="M97.52,.56c-.17-.34-.52-.56-.9-.56s-.73,.22-.9,.56l-2.01,4.13-4.49,.66c-.38,.06-.69,.32-.8,.68s-.02,.76,.25,1.02l3.26,3.22-.77,4.55c-.06,.38,.09,.76,.4,.98s.72,.25,1.06,.07l4.01-2.14,4.01,2.14c.34,.18,.75,.15,1.06-.07s.47-.6,.4-.98l-.77-4.55,3.26-3.22c.27-.27,.37-.66,.25-1.02s-.43-.62-.8-.68l-4.49-.66-2.01-4.13Z" />
    </g>
  </g>
</svg>